# xmcd
#
# Track frame offsets:
#	150
#	15312
#	31317
#	48266
#	67362
#	82811
#	100816
#	117535
#	134834
#	151067
#	167156
#	181741
#	199542
#	217605
#	231921
#	254504
#
# Disc length: 3399 seconds
#
# Revision: 1
# Processed by: cddbd v1.5.2PL0 Copyright (c) Steve Scherf et al.
# Submitted via: audiograbber 1.83.01
#
DISCID=d10d4510
DTITLE=Various Artist - ASK21-2
DYEAR=1900
DGENRE=
TTITLE0=MARK WILLS - NINETEEN SOMETHING
TTITLE1=KENNY CHESNEY - NO SHOES -NO SHIRT- NO PROBLEM
TTITLE2=DIAMOND RIO - ONE MORE DAY
TTITLE3=TIM MCGRAW - RED RAGTOP
TTITLE4=KENNY CHESNEY - THE GOOD STUFF
TTITLE5=JOE NICHOLS - THE IMPOSSIBLE
TTITLE6=BROOKS and DUNN - THE LONG GOODBYE
TTITLE7=GARY ALLEN - THE ONE
TTITLE8=RASCAL FLATTS - THESE DAYS
TTITLE9=PHIL VASSAR - THIS IS GOD
TTITLE10=ANDY GRIGGS - TONIGHT I WANT TO BE YOUR MAN
TTITLE11=TIM MCGRAW - UNBROKEN
TTITLE12=ALAN JACKSON - WORK IN PROGRESS
TTITLE13=BRAD PAISLEY - WRAPPED AROUND
TTITLE14=TOBY KEITH - YOU AIN'T MUCH FUN
TTITLE15=DATA - Data Track
EXTD=
EXTT0=
EXTT1=
EXTT2=
EXTT3=
EXTT4=
EXTT5=
EXTT6=
EXTT7=
EXTT8=
EXTT9=
EXTT10=
EXTT11=
EXTT12=
EXTT13=
EXTT14=
EXTT15=
PLAYORDER=
